<svg xmlns="http://www.w3.org/2000/svg" viewBox="0 0 200 200" width="48" height="48">
  <!-- Shield background -->
  <path d="M100 20 L150 50 L150 110 C150 140 100 170 100 170 C100 170 50 140 50 110 L50 50 Z" fill="#FFB81C" stroke="#2563EB" stroke-width="2"/>
  
  <!-- Gear icon -->
  <circle cx="100" cy="85" r="20" fill="none" stroke="#2563EB" stroke-width="2"/>
  <circle cx="100" cy="85" r="8" fill="#2563EB"/>
  
  <!-- Gear teeth -->
  <rect x="96" y="55" width="8" height="10" fill="#2563EB"/>
  <rect x="96" y="115" width="8" height="10" fill="#2563EB"/>
  <rect x="65" y="81" width="10" height="8" fill="#2563EB"/>
  <rect x="125" y="81" width="10" height="8" fill="#2563EB"/>
  
  <!-- Document lines -->
  <line x1="110" y1="65" x2="130" y2="65" stroke="#2563EB" stroke-width="1.5"/>
  <line x1="110" y1="75" x2="130" y2="75" stroke="#2563EB" stroke-width="1.5"/>
  <line x1="110" y1="85" x2="130" y2="85" stroke="#2563EB" stroke-width="1.5"/>
  <line x1="110" y1="95" x2="130" y2="95" stroke="#2563EB" stroke-width="1.5"/>
  
  <!-- Text -->
  <text x="100" y="155" font-family="Arial, sans-serif" font-size="10" font-weight="bold" text-anchor="middle" fill="#2563EB">RTO Ledger</text>
</svg>